<svg width="24" height="24" viewBox="0 0 24 24" fill="none" xmlns="http://www.w3.org/2000/svg">
<path d="M18.925 10.7889C18.5583 10.7889 18.245 10.6619 17.985 10.4079C17.725 10.1539 17.5953 9.84295 17.596 9.47495C17.5967 9.10695 17.7267 8.79695 17.986 8.54495C18.2453 8.29295 18.5583 8.16695 18.925 8.16695C19.2917 8.16695 19.601 8.29295 19.853 8.54495C20.105 8.79695 20.231 9.10695 20.231 9.47495C20.231 9.84295 20.105 10.1539 19.853 10.4079C19.601 10.6619 19.2917 10.7896 18.925 10.7889ZM5.075 10.7879C4.70834 10.7879 4.399 10.6613 4.147 10.4079C3.895 10.1539 3.769 9.84295 3.769 9.47495C3.769 9.10695 3.895 8.79695 4.147 8.54495C4.399 8.29295 4.70834 8.16695 5.075 8.16695C5.44167 8.16695 5.755 8.29295 6.015 8.54495C6.275 8.79695 6.40467 9.10695 6.404 9.47495C6.40334 9.84295 6.27334 10.1539 6.014 10.4079C5.75467 10.6619 5.44167 10.7886 5.075 10.7879ZM9.517 9.92295C9.407 9.92295 9.316 9.87895 9.244 9.79095C9.172 9.70295 9.14467 9.59761 9.162 9.47495C9.19533 9.06361 9.15034 8.67895 9.027 8.32095C8.90367 7.96295 8.68334 7.60028 8.366 7.23295C7.944 6.73295 7.647 6.22961 7.475 5.72295C7.303 5.21628 7.242 4.65861 7.292 4.04995C7.312 3.91728 7.368 3.80861 7.46 3.72395C7.552 3.63861 7.666 3.59595 7.802 3.59595C7.914 3.59595 8.00734 3.64295 8.082 3.73695C8.15667 3.83161 8.192 3.94228 8.188 4.06895C8.15467 4.60361 8.19967 5.07528 8.323 5.48395C8.44634 5.89328 8.66867 6.28561 8.99 6.66095C9.398 7.15228 9.683 7.61895 9.845 8.06095C10.007 8.50295 10.0713 8.97228 10.038 9.46895C10.0213 9.59961 9.96267 9.70795 9.862 9.79395C9.76067 9.87995 9.64567 9.92295 9.517 9.92295ZM12.344 9.92295C12.234 9.92295 12.1397 9.87528 12.061 9.77995C11.9823 9.68461 11.9517 9.57661 11.969 9.45595C12.0023 9.04461 11.9573 8.65995 11.834 8.30195C11.7113 7.94395 11.491 7.58095 11.173 7.21295C10.7583 6.71761 10.4667 6.21861 10.298 5.71595C10.1287 5.21261 10.069 4.65728 10.119 4.04995C10.1377 3.91728 10.1943 3.80861 10.289 3.72395C10.3837 3.63861 10.497 3.59595 10.629 3.59595C10.743 3.59595 10.8367 3.64395 10.91 3.73995C10.9833 3.83595 11.0183 3.94761 11.015 4.07495C10.9817 4.61561 11.0267 5.08895 11.15 5.49495C11.2727 5.90095 11.495 6.28961 11.817 6.66095C12.225 7.15228 12.51 7.61695 12.672 8.05495C12.834 8.49295 12.8983 8.95795 12.865 9.44995C12.8483 9.59328 12.7933 9.70795 12.7 9.79395C12.6067 9.87995 12.488 9.92295 12.344 9.92295ZM15.171 9.92295C15.061 9.92295 14.9667 9.87528 14.888 9.77995C14.8093 9.68461 14.7787 9.57661 14.796 9.45595C14.8293 9.04461 14.7843 8.65995 14.661 8.30195C14.5383 7.94395 14.318 7.58095 14 7.21295C13.5853 6.71761 13.2933 6.21861 13.124 5.71595C12.9553 5.21261 12.896 4.65728 12.946 4.04995C12.9647 3.91728 13.0213 3.80861 13.116 3.72395C13.2107 3.63861 13.324 3.59595 13.456 3.59595C13.57 3.59595 13.6637 3.64395 13.737 3.73995C13.8103 3.83595 13.8453 3.94761 13.842 4.07495C13.8087 4.61561 13.8537 5.08895 13.977 5.49495C14.0997 5.90095 14.322 6.28961 14.644 6.66095C15.052 7.15228 15.337 7.61695 15.499 8.05495C15.661 8.49295 15.7253 8.95795 15.692 9.44995C15.6753 9.59328 15.6203 9.70795 15.527 9.79395C15.4337 9.87995 15.315 9.92295 15.171 9.92295ZM4.616 20.9999C4.17134 20.9999 3.79067 20.8416 3.474 20.5249C3.15734 20.2083 2.99934 19.8286 3 19.3859V14.8089C3 14.5796 3.07667 14.3876 3.23 14.2329C3.38334 14.0783 3.56334 14.0006 3.77 13.9999V13.3749C3.77 12.9483 3.919 12.5836 4.217 12.2809C4.51634 11.9783 4.88134 11.8269 5.312 11.8269C5.56 11.8269 5.79667 11.8876 6.022 12.0089C6.24734 12.1303 6.44534 12.2799 6.616 12.4579L7.452 13.4249C7.53867 13.5383 7.63634 13.6416 7.745 13.7349C7.85367 13.8283 7.97267 13.9166 8.102 13.9999H15.902C16.0327 13.9166 16.1513 13.8283 16.258 13.7349C16.3647 13.6416 16.4613 13.5383 16.548 13.4249L17.385 12.4579C17.5557 12.2799 17.7533 12.1299 17.978 12.0079C18.2033 11.8873 18.44 11.8269 18.688 11.8269C19.1193 11.8269 19.4843 11.9783 19.783 12.2809C20.0817 12.5836 20.231 12.9483 20.231 13.3749V13.9999C20.4377 13.9999 20.6177 14.0773 20.771 14.2319C20.9243 14.3866 21.0007 14.5786 21 14.8079V19.3849C21 19.8289 20.8417 20.2089 20.525 20.5249C20.2083 20.8409 19.8283 20.9993 19.385 20.9999H4.616ZM4 17.6159H20V14.9999H4V17.6159ZM4.615 19.9999H19.385C19.5643 19.9999 19.7117 19.9423 19.827 19.8269C19.9423 19.7116 20 19.5643 20 19.3849V18.6149H4V19.3849C4 19.5643 4.05767 19.7116 4.173 19.8269C4.28834 19.9423 4.436 19.9999 4.616 19.9999" fill="black"/>
</svg>
