<svg width="35" height="35" viewBox="0 0 35 35" fill="none" xmlns="http://www.w3.org/2000/svg">
<rect width="35" height="35" rx="17.5" fill="#CFA970"/>
<path d="M17.494 9.51294L16.899 10.3029C16.7855 10.4531 16.7329 10.6405 16.7516 10.8277C16.7703 11.015 16.859 11.1883 17 11.3129V13.4999H14.5C13.9696 13.4999 13.4609 13.7107 13.0858 14.0857C12.7107 14.4608 12.5 14.9695 12.5 15.4999V18.4999H11.5C10.9696 18.4999 10.4609 18.7107 10.0858 19.0857C9.71071 19.4608 9.5 19.9695 9.5 20.4999V24.4999C9.5 24.7652 9.60536 25.0195 9.79289 25.207C9.98043 25.3946 10.2348 25.4999 10.5 25.4999H24.5C24.7652 25.4999 25.0196 25.3946 25.2071 25.207C25.3946 25.0195 25.5 24.7652 25.5 24.4999V20.4999C25.5 19.9695 25.2893 19.4608 24.9142 19.0857C24.5391 18.7107 24.0304 18.4999 23.5 18.4999H22.5V15.4999C22.5 14.9695 22.2893 14.4608 21.9142 14.0857C21.5391 13.7107 21.0304 13.4999 20.5 13.4999H18V11.3059C18.138 11.1803 18.2239 11.0076 18.2409 10.8218C18.2579 10.636 18.2048 10.4505 18.092 10.3019L17.494 9.51294ZM13.5 15.4999C13.5 15.2347 13.6054 14.9804 13.7929 14.7928C13.9804 14.6053 14.2348 14.4999 14.5 14.4999H20.5C20.7652 14.4999 21.0196 14.6053 21.2071 14.7928C21.3946 14.9804 21.5 15.2347 21.5 15.4999V15.9139C21.3799 15.9146 21.2608 15.8913 21.1499 15.8453C21.039 15.7992 20.9383 15.7315 20.854 15.6459C20.6762 15.468 20.4652 15.3269 20.2328 15.2306C20.0005 15.1343 19.7515 15.0847 19.5 15.0847C19.2485 15.0847 18.9995 15.1343 18.7672 15.2306C18.5348 15.3269 18.3238 15.468 18.146 15.6459C17.9746 15.8172 17.7423 15.9133 17.5 15.9133C17.2577 15.9133 17.0254 15.8172 16.854 15.6459C16.6762 15.468 16.4652 15.3269 16.2328 15.2306C16.0005 15.1343 15.7515 15.0847 15.5 15.0847C15.2485 15.0847 14.9995 15.1343 14.7672 15.2306C14.5348 15.3269 14.3238 15.468 14.146 15.6459C14.0617 15.7315 13.961 15.7992 13.8501 15.8453C13.7392 15.8913 13.6201 15.9146 13.5 15.9139V15.4999ZM13.5 16.9139C13.99 16.9139 14.48 16.7269 14.854 16.3539C15.0254 16.1827 15.2577 16.0865 15.5 16.0865C15.7423 16.0865 15.9746 16.1827 16.146 16.3539C16.894 17.1009 18.106 17.1009 18.854 16.3539C19.0254 16.1827 19.2577 16.0865 19.5 16.0865C19.7423 16.0865 19.9746 16.1827 20.146 16.3539C20.52 16.7269 21.01 16.9139 21.5 16.9139V18.4999H13.5V16.9139ZM10.5 20.4999C10.5 20.2347 10.6054 19.9804 10.7929 19.7928C10.9804 19.6053 11.2348 19.4999 11.5 19.4999H23.5C23.7652 19.4999 24.0196 19.6053 24.2071 19.7928C24.3946 19.9804 24.5 20.2347 24.5 20.4999V21.2929L24.146 21.6469C24.0611 21.7319 23.9603 21.7993 23.8494 21.8452C23.7385 21.8912 23.6196 21.9148 23.4995 21.9148C23.3794 21.9148 23.2605 21.8912 23.1496 21.8452C23.0387 21.7993 22.9379 21.7319 22.853 21.6469C22.6753 21.4692 22.4643 21.3282 22.232 21.232C21.9998 21.1358 21.7509 21.0862 21.4995 21.0862C21.2481 21.0862 20.9992 21.1358 20.767 21.232C20.5347 21.3282 20.3237 21.4692 20.146 21.6469C19.9746 21.8182 19.7423 21.9143 19.5 21.9143C19.2577 21.9143 19.0254 21.8182 18.854 21.6469C18.6762 21.469 18.4652 21.3279 18.2328 21.2316C18.0005 21.1353 17.7515 21.0857 17.5 21.0857C17.2485 21.0857 16.9995 21.1353 16.7672 21.2316C16.5348 21.3279 16.3238 21.469 16.146 21.6469C15.9746 21.8182 15.7423 21.9143 15.5 21.9143C15.2577 21.9143 15.0254 21.8182 14.854 21.6469C14.6762 21.469 14.4652 21.3279 14.2328 21.2316C14.0005 21.1353 13.7515 21.0857 13.5 21.0857C13.2485 21.0857 12.9995 21.1353 12.7672 21.2316C12.5348 21.3279 12.3238 21.469 12.146 21.6469C11.9746 21.8182 11.7423 21.9143 11.5 21.9143C11.2577 21.9143 11.0254 21.8182 10.854 21.6469L10.5 21.2929V20.4999ZM22.146 22.3539C22.4501 22.658 22.8476 22.8508 23.2746 22.9014C23.7017 22.9521 24.1333 22.8575 24.5 22.6329V24.4999H10.5V22.6329C11.237 23.0849 12.215 22.9929 12.854 22.3529C13.0254 22.1817 13.2577 22.0855 13.5 22.0855C13.7423 22.0855 13.9746 22.1817 14.146 22.3529C14.894 23.1009 16.106 23.1009 16.854 22.3529C17.0254 22.1817 17.2577 22.0855 17.5 22.0855C17.7423 22.0855 17.9746 22.1817 18.146 22.3529C18.894 23.1009 20.106 23.1009 20.853 22.3529C20.9379 22.268 21.0387 22.2006 21.1496 22.1547C21.2605 22.1087 21.3794 22.085 21.4995 22.085C21.6196 22.085 21.7385 22.1087 21.8494 22.1547C21.9603 22.2006 22.0611 22.268 22.146 22.3529V22.3539Z" fill="white"/>
</svg>
