<svg width="35" height="35" viewBox="0 0 35 35" fill="none" xmlns="http://www.w3.org/2000/svg">
<rect width="35" height="35" rx="17.5" fill="#CFA970"/>
<g clip-path="url(#clip0_29_53)">
<path d="M19.497 9.5C19.8578 9.49999 20.2119 9.59759 20.5217 9.78244C20.8316 9.96729 21.0856 10.2325 21.257 10.55L21.743 11.45C21.9144 11.7675 22.1684 12.0327 22.4783 12.2176C22.7881 12.4024 23.1422 12.5 23.503 12.5H25.5C26.0304 12.5 26.5391 12.7107 26.9142 13.0858C27.2893 13.4609 27.5 13.9696 27.5 14.5V23.5C27.5 24.0304 27.2893 24.5391 26.9142 24.9142C26.5391 25.2893 26.0304 25.5 25.5 25.5H9.5C8.96957 25.5 8.46086 25.2893 8.08579 24.9142C7.71071 24.5391 7.5 24.0304 7.5 23.5V14.5C7.5 13.9696 7.71071 13.4609 8.08579 13.0858C8.46086 12.7107 8.96957 12.5 9.5 12.5H11.497C11.8574 12.5 12.2111 12.4026 12.5208 12.2182C12.8304 12.0337 13.0844 11.769 13.256 11.452L13.745 10.548C13.9166 10.231 14.1706 9.96631 14.4802 9.78183C14.7899 9.59736 15.1436 9.49998 15.504 9.5H19.497Z" stroke="white" stroke-width="2" stroke-linecap="round" stroke-linejoin="round"/>
<path d="M17.5 21.5C19.1569 21.5 20.5 20.1569 20.5 18.5C20.5 16.8431 19.1569 15.5 17.5 15.5C15.8431 15.5 14.5 16.8431 14.5 18.5C14.5 20.1569 15.8431 21.5 17.5 21.5Z" stroke="white" stroke-width="2" stroke-linecap="round" stroke-linejoin="round"/>
</g>
<defs>
<clipPath id="clip0_29_53">
<rect width="24" height="24" fill="white" transform="translate(5.5 5.5)"/>
</clipPath>
</defs>
</svg>
