<svg width="24" height="24" viewBox="0 0 24 24" fill="none" xmlns="http://www.w3.org/2000/svg">
<path d="M1 19V10C1 9.71667 1.096 9.47934 1.288 9.288C1.48 9.09667 1.71733 9.00067 2 9C2.28267 8.99934 2.52033 9.09534 2.713 9.288C2.90567 9.48067 3.00133 9.718 3 10V11H5V4C5 3.71667 5.096 3.47934 5.288 3.288C5.48 3.09667 5.71733 3.00067 6 3C6.28267 2.99934 6.52033 3.09534 6.713 3.288C6.90567 3.48067 7.00133 3.718 7 4V5H9V4C9 3.71667 9.096 3.47934 9.288 3.288C9.48 3.09667 9.71733 3.00067 10 3C10.2827 2.99934 10.5203 3.09534 10.713 3.288C10.9057 3.48067 11.0013 3.718 11 4V5H13V4C13 3.71667 13.096 3.47934 13.288 3.288C13.48 3.09667 13.7173 3.00067 14 3C14.2827 2.99934 14.5203 3.09534 14.713 3.288C14.9057 3.48067 15.0013 3.718 15 4V5H17V4C17 3.71667 17.096 3.47934 17.288 3.288C17.48 3.09667 17.7173 3.00067 18 3C18.2827 2.99934 18.5203 3.09534 18.713 3.288C18.9057 3.48067 19.0013 3.718 19 4V11H21V10C21 9.71667 21.096 9.47934 21.288 9.288C21.48 9.09667 21.7173 9.00067 22 9C22.2827 8.99934 22.5203 9.09534 22.713 9.288C22.9057 9.48067 23.0013 9.718 23 10V19C23 19.55 22.8043 20.021 22.413 20.413C22.0217 20.805 21.5507 21.0007 21 21H15C14.7167 21 14.4793 20.904 14.288 20.712C14.0967 20.52 14.0007 20.2827 14 20V18C14 17.45 13.8043 16.9793 13.413 16.588C13.0217 16.1967 12.5507 16.0007 12 16C11.4493 15.9993 10.9787 16.1953 10.588 16.588C10.1973 16.9807 10.0013 17.4513 10 18V20C10 20.2833 9.904 20.521 9.712 20.713C9.52 20.905 9.28267 21.0007 9 21H3C2.45 21 1.97933 20.8043 1.588 20.413C1.19667 20.0217 1.00067 19.5507 1 19ZM3 19H8V18C8 16.9 8.39167 15.9583 9.175 15.175C9.95833 14.3917 10.9 14 12 14C13.1 14 14.0417 14.3917 14.825 15.175C15.6083 15.9583 16 16.9 16 18V19H21V13H18C17.7167 13 17.4793 12.904 17.288 12.712C17.0967 12.52 17.0007 12.2827 17 12V7H7V12C7 12.2833 6.904 12.521 6.712 12.713C6.52 12.905 6.28267 13.0007 6 13H3V19ZM9.25 12H10.75C10.8333 12 10.896 11.9793 10.938 11.938C10.98 11.8967 11.0007 11.834 11 11.75V10C11 9.71667 10.904 9.47934 10.712 9.288C10.52 9.09667 10.2827 9.00067 10 9C9.71733 8.99934 9.48 9.09534 9.288 9.288C9.096 9.48067 9 9.718 9 10V11.75C9 11.8333 9.021 11.896 9.063 11.938C9.105 11.98 9.16733 12.0007 9.25 12ZM13.25 12H14.75C14.8333 12 14.896 11.9793 14.938 11.938C14.98 11.8967 15.0007 11.834 15 11.75V10C15 9.71667 14.904 9.47934 14.712 9.288C14.52 9.09667 14.2827 9.00067 14 9C13.7173 8.99934 13.48 9.09534 13.288 9.288C13.096 9.48067 13 9.718 13 10V11.75C13 11.8333 13.021 11.896 13.063 11.938C13.105 11.98 13.1673 12.0007 13.25 12Z" fill="black"/>
</svg>
