<svg width="35" height="35" viewBox="0 0 35 35" fill="none" xmlns="http://www.w3.org/2000/svg">
<rect width="35" height="35" rx="17.5" fill="#CFA970"/>
<g clip-path="url(#clip0_29_47)">
<path d="M19.5 9C19.5 9.83 18.83 10.5 18 10.5C17.17 10.5 16.5 9.83 16.5 9C16.5 8.17 17.17 7.5 18 7.5C18.83 7.5 19.5 8.17 19.5 9ZM14 10.5C13.17 10.5 12.5 11.17 12.5 12C12.5 12.83 13.17 13.5 14 13.5C14.83 13.5 15.5 12.83 15.5 12C15.5 11.17 14.83 10.5 14 10.5ZM19.5 17.5L18.72 15.25H21.68L23.84 14.17C24.21 14 24.36 13.54 24.17 13.17C24.1277 13.0811 24.068 13.0016 23.9944 12.9361C23.9209 12.8707 23.835 12.8206 23.7418 12.7889C23.6485 12.7572 23.5499 12.7445 23.4517 12.7516C23.3535 12.7587 23.2577 12.7853 23.17 12.83L22.35 13.24L21.86 12.4C21.57 11.75 20.86 11.38 20.16 11.54L17.69 12.07C17 12.22 16.5 12.85 16.5 13.57V14.27L14.07 15.89H14.08C14 15.96 13.89 16.05 13.83 16.17L12.94 17.94L11.16 18.83C10.79 19 10.64 19.47 10.83 19.84C10.9205 20.0174 11.0776 20.1517 11.2669 20.2135C11.4562 20.2754 11.6622 20.2597 11.84 20.17L14.06 19.06L15.1 17L16.5 18.5C15.5 21.5 8.5 25.5 8.5 25.5C8.5 25.5 12.5 27.5 17.5 27.5C22.5 27.5 26.5 25.5 26.5 25.5C26.5 25.5 21.5 21.5 19.5 17.5ZM22.35 16.59L22.03 16.75H20.83L20.89 16.91C21.41 17.94 22.17 19 23 19.94L22.47 16.53L22.35 16.59Z" fill="white"/>
</g>
<defs>
<clipPath id="clip0_29_47">
<rect width="24" height="24" fill="white" transform="translate(5.5 5.5)"/>
</clipPath>
</defs>
</svg>
