<svg width="35" height="35" viewBox="0 0 35 35" fill="none" xmlns="http://www.w3.org/2000/svg">
<rect width="35" height="35" rx="17.5" fill="#CFA970"/>
<path d="M9.5 22.5C9.5 23.2956 9.81607 24.0587 10.3787 24.6213C10.9413 25.1839 11.7044 25.5 12.5 25.5C13.2956 25.5 14.0587 25.1839 14.6213 24.6213C15.1839 24.0587 15.5 23.2956 15.5 22.5C15.5 21.7044 15.1839 20.9413 14.6213 20.3787C14.0587 19.8161 13.2956 19.5 12.5 19.5C11.7044 19.5 10.9413 19.8161 10.3787 20.3787C9.81607 20.9413 9.5 21.7044 9.5 22.5ZM19.5 22.5C19.5 23.2956 19.8161 24.0587 20.3787 24.6213C20.9413 25.1839 21.7044 25.5 22.5 25.5C23.2956 25.5 24.0587 25.1839 24.6213 24.6213C25.1839 24.0587 25.5 23.2956 25.5 22.5C25.5 21.7044 25.1839 20.9413 24.6213 20.3787C24.0587 19.8161 23.2956 19.5 22.5 19.5C21.7044 19.5 20.9413 19.8161 20.3787 20.3787C19.8161 20.9413 19.5 21.7044 19.5 22.5Z" stroke="white" stroke-width="2" stroke-linecap="round" stroke-linejoin="round"/>
<path d="M15.5 22.5V9.5H25.5V22.5M15.5 13.5H25.5" stroke="white" stroke-width="2" stroke-linecap="round" stroke-linejoin="round"/>
</svg>
