<svg width="35" height="35" viewBox="0 0 35 35" fill="none" xmlns="http://www.w3.org/2000/svg">
<rect width="35" height="35" rx="17.5" fill="#CFA970"/>
<g clip-path="url(#clip0_29_44)">
<path d="M8.5 7.5V14.5C8.5 15.6 9.4 16.5 10.5 16.5H14.5C15.0304 16.5 15.5391 16.2893 15.9142 15.9142C16.2893 15.5391 16.5 15.0304 16.5 14.5V7.5M12.5 7.5V27.5M26.5 20.5V7.5C25.1739 7.5 23.9021 8.02678 22.9645 8.96447C22.0268 9.90215 21.5 11.1739 21.5 12.5V18.5C21.5 19.6 22.4 20.5 23.5 20.5H26.5ZM26.5 20.5V27.5" stroke="white" stroke-width="2" stroke-linecap="round" stroke-linejoin="round"/>
</g>
<defs>
<clipPath id="clip0_29_44">
<rect width="24" height="24" fill="white" transform="translate(5.5 5.5)"/>
</clipPath>
</defs>
</svg>
